# Blender v2.80 (sub 75) OBJ File: ''
# www.blender.org
 65616584968
mtllib test.mtl
o Cube
v 1.000000 1.000000 -1.000000
v 1.000000 -1.000000 -1.000000
v 1.000000 1.000000 1.000000
v 1.000000 -1.000000 1.000000
v -1.000000 1.000000 -1.000000
v -1.000000 -1.000000 -1.000000
v -1.000000 1.000000 1.000000
v -1.000000 -1.000000 1.000000
v -1.000000 -1.000000 0.008462
v 1.000000 1.000000 0.008462
v -1.000000 1.000000 0.008462
v 1.000000 -1.000000 0.008462
v 1.000000 -0.015596 -1.000000
v -1.000000 -0.015596 1.000000
v 1.000000 -0.015596 1.000000
v -1.000000 -0.015596 -1.000000
v 1.918129 -0.015596 0.008462
v -1.816862 -0.015596 0.008462
v 0.024537 -1.000000 -1.000000
v 0.024537 1.000000 1.000000
v 0.024537 -1.000000 1.000000
v 0.024537 1.000000 -1.000000
v 0.024537 -1.722262 0.008462
v 0.024537 2.001468 0.008462
v 0.024537 -0.015596 -1.973676
v 0.024537 -0.015596 1.926524
vt 0.496933 0.126058
vt 0.625000 0.126058
vt 0.625000 0.250000
vt 0.496933 0.250000
vt 0.498050 0.371933
vt 0.625000 0.371933
vt 0.625000 0.500000
vt 0.498050 0.500000
vt 0.498050 0.623942
vt 0.625000 0.623942
vt 0.625000 0.750000
vt 0.498050 0.750000
vt 0.503067 0.876058
vt 0.625000 0.876058
vt 0.625000 1.000000
vt 0.503067 1.000000
vt 0.248050 0.626058
vt 0.375000 0.626058
vt 0.375000 0.750000
vt 0.248050 0.750000
vt 0.748050 0.628067
vt 0.875000 0.628067
vt 0.875000 0.750000
vt 0.748050 0.750000
vt 0.248050 0.500000
vt 0.375000 0.500000
vt 0.503067 0.750000
vt 0.625000 0.750000
vt 0.496933 0.000000
vt 0.625000 0.000000
vt 0.375000 0.500000
vt 0.375000 0.623942
vt 0.125000 0.500000
vt 0.125000 0.626058
vt 0.625000 0.628067
vt 0.125000 0.750000
vt 0.375000 0.750000
vt 0.375000 0.371933
vt 0.375000 0.250000
vt 0.498050 0.250000
vt 0.625000 0.500000
vt 0.748050 0.500000
vt 0.375000 0.000000
vt 0.375000 0.126058
vt 0.375000 0.876058
vt 0.875000 0.500000
vt 0.375000 1.000000
vt 0.625000 0.250000
vt 0.375000 0.250000
vn -0.3999 0.8182 0.4132
vn -0.3805 0.3838 0.8414
vn -0.8685 0.3493 -0.3517
vn 0.3285 -0.8875 0.3232
vn 0.8396 0.3795 0.3887
vn 0.4104 0.3942 -0.8223
vn 0.8417 0.3805 -0.3831
vn 0.3291 -0.8890 -0.3184
vn -0.8667 0.3485 0.3570
vn -0.4010 0.8205 -0.4074
vn -0.8633 -0.3582 0.3556
vn 0.8378 -0.3907 -0.3814
vn 0.4084 -0.4047 -0.8182
vn 0.8357 -0.3897 0.3869
vn -0.8651 -0.3589 -0.3504
vn -0.3787 -0.3941 0.8374
vn 0.3948 -0.3912 0.8313
vn -0.3919 -0.4078 -0.8247
vn 0.4177 0.8138 -0.4041
vn -0.3150 -0.8935 -0.3200
vn -0.3939 0.3973 -0.8289
vn -0.3144 -0.8920 0.3249
vn 0.3966 0.3810 0.8352
vn 0.4166 0.8115 0.4098
usemtl Material
s off
f 24/1/1 11/2/1 7/3/1 20/4/1
f 26/5/2 20/6/2 7/7/2 14/8/2
f 18/9/3 11/10/3 5/11/3 16/12/3
f 23/13/4 12/14/4 4/15/4 21/16/4
f 17/17/5 10/18/5 3/19/5 15/20/5
f 25/21/6 22/22/6 1/23/6 13/24/6
f 13/25/7 1/26/7 10/18/7 17/17/7
f 19/27/8 2/28/8 12/14/8 23/13/8
f 14/8/9 7/7/9 11/10/9 18/9/9
f 22/29/10 5/30/10 11/2/10 24/1/10
f 8/31/11 14/8/11 18/9/11 9/32/11
f 2/33/12 13/25/12 17/17/12 12/34/12
f 19/35/13 25/21/13 13/24/13 2/28/13
f 12/34/14 17/17/14 15/20/14 4/36/14
f 9/32/15 18/9/15 16/12/15 6/37/15
f 21/38/16 26/5/16 14/8/16 8/31/16
f 4/39/17 15/40/17 26/5/17 21/38/17
f 6/41/18 16/42/18 25/21/18 19/35/18
f 1/43/19 22/29/19 24/1/19 10/44/19
f 6/37/20 19/27/20 23/13/20 9/45/20
f 16/42/21 5/46/21 22/22/21 25/21/21
f 9/45/22 23/13/22 21/16/22 8/47/22
f 15/40/23 3/48/23 20/6/23 26/5/23
f 10/44/24 24/1/24 20/4/24 3/49/24
